<svg xmlns="http://www.w3.org/2000/svg" xmlns:xlink="http://www.w3.org/1999/xlink" width="500" zoomAndPan="magnify" viewBox="0 0 375 374.999991" height="500" preserveAspectRatio="xMidYMid meet" version="1.0"><defs><g/><clipPath id="b6d5d66130"><path d="M 167 85.355469 L 208 85.355469 L 208 127 L 167 127 Z M 167 85.355469 " clip-rule="nonzero"/></clipPath><clipPath id="26ec8a1e1e"><path d="M 206 109 L 244.144531 109 L 244.144531 146 L 206 146 Z M 206 109 " clip-rule="nonzero"/></clipPath><clipPath id="cee0451b88"><path d="M 206 153 L 244.144531 153 L 244.144531 190 L 206 190 Z M 206 153 " clip-rule="nonzero"/></clipPath><clipPath id="68d1e275f5"><path d="M 167 172 L 208 172 L 208 214.355469 L 167 214.355469 Z M 167 172 " clip-rule="nonzero"/></clipPath><clipPath id="0867e87382"><path d="M 130.894531 153 L 169 153 L 169 190 L 130.894531 190 Z M 130.894531 153 " clip-rule="nonzero"/></clipPath><clipPath id="bb050017c4"><path d="M 130.894531 109 L 169 109 L 169 146 L 130.894531 146 Z M 130.894531 109 " clip-rule="nonzero"/></clipPath></defs><rect x="-37.5" width="450" fill="#ffffff" y="-37.499999" height="449.999989" fill-opacity="1"/><rect x="-37.5" width="450" fill="#ffffff" y="-37.499999" height="449.999989" fill-opacity="1"/><rect x="-37.5" width="450" fill="#ffffff" y="-37.499999" height="449.999989" fill-opacity="1"/><g clip-path="url(#b6d5d66130)"><path fill="#69c9d2" d="M 174.394531 99.433594 C 178.042969 99.433594 180.996094 102.394531 180.996094 106.046875 C 180.996094 109.699219 178.042969 112.660156 174.394531 112.660156 C 170.75 112.660156 167.796875 109.699219 167.796875 106.046875 C 167.796875 102.394531 170.75 99.433594 174.394531 99.433594 Z M 200.644531 99.433594 C 204.289062 99.433594 207.246094 102.394531 207.246094 106.046875 C 207.246094 109.699219 204.289062 112.660156 200.644531 112.660156 C 197 112.660156 194.046875 109.699219 194.046875 106.046875 C 194.046875 102.394531 197 99.433594 200.644531 99.433594 Z M 184.140625 97.652344 C 182.140625 96.457031 180.921875 94.304688 180.921875 91.96875 C 180.921875 88.316406 183.875 85.355469 187.519531 85.355469 C 191.167969 85.355469 194.121094 88.316406 194.121094 91.96875 C 194.121094 94.246094 192.972656 96.253906 191.226562 97.445312 C 187.898438 99.710938 187.355469 112.289062 190.945312 114.464844 C 192.851562 115.625 194.121094 117.726562 194.121094 120.121094 C 194.121094 123.773438 191.167969 126.738281 187.519531 126.738281 C 183.875 126.738281 180.921875 123.773438 180.921875 120.121094 C 180.921875 117.707031 182.210938 115.59375 184.140625 114.441406 C 187.304688 112.578125 187.320312 99.5625 184.140625 97.652344 Z M 184.140625 97.652344 " fill-opacity="1" fill-rule="evenodd"/></g><g clip-path="url(#26ec8a1e1e)"><path fill="#34c5f0" d="M 237.660156 136.035156 C 239.480469 139.199219 238.398438 143.242188 235.242188 145.070312 C 232.085938 146.894531 228.046875 145.8125 226.226562 142.648438 C 224.402344 139.484375 225.484375 135.4375 228.640625 133.613281 C 231.800781 131.785156 235.835938 132.871094 237.660156 136.035156 Z M 230.945312 120.820312 C 230.980469 118.488281 232.226562 116.351562 234.246094 115.183594 C 237.402344 113.359375 241.4375 114.441406 243.261719 117.605469 C 245.082031 120.769531 244.003906 124.8125 240.84375 126.640625 C 238.878906 127.777344 236.570312 127.785156 234.667969 126.867188 C 231.042969 125.109375 219.902344 130.929688 219.816406 135.132812 C 219.765625 137.367188 218.585938 139.519531 216.515625 140.71875 C 213.359375 142.542969 209.324219 141.460938 207.5 138.296875 C 205.675781 135.132812 206.757812 131.085938 209.917969 129.261719 C 212.003906 128.054688 214.472656 128.117188 216.4375 129.214844 C 219.628906 131.03125 230.882812 124.535156 230.945312 120.820312 Z M 224.535156 113.253906 C 226.355469 116.417969 225.273438 120.460938 222.117188 122.289062 C 218.960938 124.117188 214.925781 123.03125 213.101562 119.867188 C 211.28125 116.703125 212.359375 112.65625 215.519531 110.832031 C 218.675781 109.003906 222.710938 110.089844 224.535156 113.253906 Z M 224.535156 113.253906 " fill-opacity="1" fill-rule="evenodd"/></g><g clip-path="url(#cee0451b88)"><path fill="#00afef" d="M 237.660156 163.675781 C 235.835938 166.839844 231.800781 167.925781 228.640625 166.097656 C 225.484375 164.273438 224.402344 160.226562 226.226562 157.0625 C 228.046875 153.898438 232.085938 152.8125 235.242188 154.640625 C 238.398438 156.46875 239.480469 160.511719 237.660156 163.675781 Z M 224.535156 186.457031 C 222.710938 189.621094 218.675781 190.707031 215.519531 188.878906 C 212.359375 187.050781 211.28125 183.007812 213.101562 179.84375 C 214.925781 176.679688 218.960938 175.59375 222.117188 177.421875 C 225.273438 179.246094 226.355469 183.292969 224.535156 186.457031 Z M 234.324219 173.023438 C 236.359375 171.886719 238.828125 171.902344 240.84375 173.070312 C 244.003906 174.894531 245.082031 178.941406 243.261719 182.105469 C 241.4375 185.269531 237.402344 186.351562 234.246094 184.527344 C 232.277344 183.386719 231.117188 181.386719 230.960938 179.277344 C 230.667969 175.253906 220.066406 168.496094 216.390625 170.519531 C 214.4375 171.59375 211.988281 171.648438 209.917969 170.449219 C 206.757812 168.625 205.675781 164.578125 207.5 161.414062 C 209.324219 158.25 213.359375 157.167969 216.515625 158.992188 C 218.601562 160.199219 219.78125 162.378906 219.816406 164.628906 C 219.84375 168.304688 231.082031 174.828125 234.324219 173.023438 Z M 234.324219 173.023438 " fill-opacity="1" fill-rule="evenodd"/></g><g clip-path="url(#68d1e275f5)"><path fill="#69c9d2" d="M 200.644531 200.277344 C 197 200.277344 194.046875 197.316406 194.046875 193.664062 C 194.046875 190.011719 197 187.050781 200.644531 187.050781 C 204.292969 187.050781 207.246094 190.011719 207.246094 193.664062 C 207.246094 197.316406 204.292969 200.277344 200.644531 200.277344 Z M 190.902344 202.058594 C 192.902344 203.253906 194.121094 205.40625 194.121094 207.742188 C 194.121094 211.394531 191.167969 214.355469 187.519531 214.355469 C 183.875 214.355469 180.921875 211.394531 180.921875 207.742188 C 180.921875 205.464844 182.070312 203.457031 183.816406 202.265625 C 187.144531 200 187.6875 187.421875 184.097656 185.242188 C 182.191406 184.082031 180.921875 181.984375 180.921875 179.589844 C 180.921875 175.933594 183.875 172.972656 187.519531 172.972656 C 191.167969 172.972656 194.121094 175.933594 194.121094 179.589844 C 194.121094 182.003906 192.832031 184.117188 190.902344 185.269531 C 187.738281 187.132812 187.722656 200.148438 190.902344 202.058594 Z M 174.398438 200.277344 C 170.753906 200.277344 167.796875 197.316406 167.796875 193.664062 C 167.796875 190.011719 170.753906 187.050781 174.394531 187.050781 C 178.042969 187.050781 180.996094 190.011719 180.996094 193.664062 C 180.996094 197.316406 178.042969 200.277344 174.398438 200.277344 Z M 174.398438 200.277344 " fill-opacity="1" fill-rule="evenodd"/></g><g clip-path="url(#0867e87382)"><path fill="#34c5f0" d="M 137.382812 163.675781 C 135.5625 160.511719 136.644531 156.46875 139.800781 154.640625 C 142.957031 152.8125 146.992188 153.898438 148.816406 157.0625 C 150.640625 160.226562 149.558594 164.273438 146.402344 166.097656 C 143.242188 167.925781 139.207031 166.839844 137.382812 163.675781 Z M 144.097656 178.890625 C 144.0625 181.222656 142.816406 183.359375 140.796875 184.527344 C 137.640625 186.351562 133.605469 185.269531 131.78125 182.105469 C 129.960938 178.941406 131.039062 174.894531 134.199219 173.070312 C 136.164062 171.929688 138.476562 171.925781 140.375 172.84375 C 144 174.601562 155.140625 168.78125 155.226562 164.578125 C 155.277344 162.34375 156.453125 160.191406 158.527344 158.992188 C 161.683594 157.167969 165.71875 158.25 167.542969 161.414062 C 169.367188 164.578125 168.285156 168.625 165.125 170.449219 C 163.039062 171.65625 160.570312 171.59375 158.605469 170.496094 C 155.414062 168.679688 144.160156 175.175781 144.097656 178.890625 Z M 150.507812 186.457031 C 148.6875 183.292969 149.769531 179.25 152.925781 177.421875 C 156.082031 175.597656 160.117188 176.679688 161.941406 179.84375 C 163.761719 183.007812 162.683594 187.050781 159.523438 188.878906 C 156.367188 190.707031 152.332031 189.621094 150.507812 186.457031 Z M 150.507812 186.457031 " fill-opacity="1" fill-rule="evenodd"/></g><g clip-path="url(#bb050017c4)"><path fill="#00afef" d="M 150.507812 113.253906 C 152.332031 110.089844 156.367188 109.003906 159.523438 110.832031 C 162.683594 112.65625 163.761719 116.703125 161.941406 119.867188 C 160.117188 123.03125 156.082031 124.117188 152.925781 122.289062 C 149.769531 120.460938 148.6875 116.417969 150.507812 113.253906 Z M 140.71875 126.6875 C 138.683594 127.824219 136.214844 127.808594 134.199219 126.640625 C 131.039062 124.8125 129.960938 120.769531 131.78125 117.605469 C 133.605469 114.441406 137.640625 113.355469 140.796875 115.183594 C 142.765625 116.320312 143.925781 118.324219 144.082031 120.433594 C 144.375 124.457031 154.976562 131.214844 158.652344 129.1875 C 160.605469 128.117188 163.054688 128.0625 165.125 129.261719 C 168.285156 131.085938 169.367188 135.132812 167.542969 138.296875 C 165.71875 141.460938 161.683594 142.542969 158.527344 140.71875 C 156.4375 139.507812 155.261719 137.332031 155.226562 135.082031 C 155.199219 131.402344 143.960938 124.882812 140.71875 126.6875 Z M 137.382812 136.035156 C 139.207031 132.871094 143.242188 131.785156 146.402344 133.613281 C 149.558594 135.441406 150.640625 139.484375 148.816406 142.648438 C 146.992188 145.8125 142.957031 146.894531 139.800781 145.070312 C 136.644531 143.242188 135.5625 139.199219 137.382812 136.035156 Z M 137.382812 136.035156 " fill-opacity="1" fill-rule="evenodd"/></g><path fill="#00afef" d="M 187.523438 137.703125 C 194.21875 137.703125 199.648438 143.144531 199.648438 149.855469 C 199.648438 156.566406 194.21875 162.007812 187.523438 162.007812 C 180.824219 162.007812 175.394531 156.566406 175.394531 149.855469 C 175.394531 143.144531 180.824219 137.703125 187.523438 137.703125 Z M 187.523438 137.703125 " fill-opacity="1" fill-rule="evenodd"/><g fill="#545454" fill-opacity="1"><g transform="translate(134.99776, 255.876691)"><g><path d="M 12.015625 0.34375 C 9.003906 0.34375 6.628906 -0.460938 4.890625 -2.078125 C 3.160156 -3.703125 2.296875 -5.867188 2.296875 -8.578125 C 2.296875 -9.273438 2.328125 -9.8125 2.390625 -10.1875 L 3.59375 -20.203125 C 3.851562 -22.285156 4.53125 -24.117188 5.625 -25.703125 C 6.726562 -27.296875 8.160156 -28.523438 9.921875 -29.390625 C 11.691406 -30.265625 13.660156 -30.703125 15.828125 -30.703125 C 18.828125 -30.703125 21.203125 -29.921875 22.953125 -28.359375 C 24.703125 -26.796875 25.578125 -24.710938 25.578125 -22.109375 C 25.578125 -21.796875 25.550781 -21.320312 25.5 -20.6875 C 25.4375 -20.425781 25.191406 -20.265625 24.765625 -20.203125 L 20.25 -19.90625 L 20.078125 -19.90625 C 19.640625 -19.90625 19.453125 -19.976562 19.515625 -20.125 L 19.5625 -20.375 C 19.582031 -20.550781 19.59375 -20.796875 19.59375 -21.109375 C 19.59375 -22.441406 19.195312 -23.5 18.40625 -24.28125 C 17.613281 -25.0625 16.535156 -25.453125 15.171875 -25.453125 C 13.671875 -25.453125 12.40625 -24.984375 11.375 -24.046875 C 10.351562 -23.109375 9.753906 -21.882812 9.578125 -20.375 L 8.28125 -9.921875 C 8.25 -9.753906 8.234375 -9.507812 8.234375 -9.1875 C 8.234375 -7.882812 8.625 -6.84375 9.40625 -6.0625 C 10.1875 -5.289062 11.269531 -4.90625 12.65625 -4.90625 C 14.164062 -4.90625 15.425781 -5.363281 16.4375 -6.28125 C 17.445312 -7.207031 18.050781 -8.421875 18.25 -9.921875 C 18.3125 -10.273438 18.570312 -10.4375 19.03125 -10.40625 L 23.5 -10.1875 C 23.957031 -10.132812 24.1875 -10.0625 24.1875 -9.96875 L 24.15625 -9.75 C 23.914062 -7.757812 23.25 -6 22.15625 -4.46875 C 21.0625 -2.9375 19.640625 -1.75 17.890625 -0.90625 C 16.140625 -0.0703125 14.179688 0.34375 12.015625 0.34375 Z M 12.015625 0.34375 "/></g></g></g><g fill="#545454" fill-opacity="1"><g transform="translate(159.491875, 255.876691)"><g><path d="M 20.640625 0 C 20.234375 0 20 -0.203125 19.9375 -0.609375 L 19.25 -4.640625 C 19.21875 -4.785156 19.144531 -4.859375 19.03125 -4.859375 L 8.71875 -4.859375 C 8.570312 -4.859375 8.484375 -4.785156 8.453125 -4.640625 L 6.765625 -0.609375 C 6.585938 -0.203125 6.296875 0 5.890625 0 L 1 0 C 0.625 0 0.4375 -0.160156 0.4375 -0.484375 L 0.515625 -0.828125 L 13.046875 -29.75 C 13.222656 -30.144531 13.515625 -30.34375 13.921875 -30.34375 L 20.078125 -30.34375 C 20.484375 -30.34375 20.726562 -30.144531 20.8125 -29.75 L 26.234375 -0.828125 L 26.234375 -0.65625 C 26.234375 -0.445312 26.164062 -0.285156 26.03125 -0.171875 C 25.90625 -0.0546875 25.738281 0 25.53125 0 Z M 10.53125 -9.890625 C 10.507812 -9.679688 10.566406 -9.578125 10.703125 -9.578125 L 18.171875 -9.578125 C 18.335938 -9.578125 18.421875 -9.679688 18.421875 -9.890625 L 16.265625 -23.109375 C 16.234375 -23.222656 16.179688 -23.28125 16.109375 -23.28125 C 16.035156 -23.28125 15.96875 -23.222656 15.90625 -23.109375 Z M 10.53125 -9.890625 "/></g></g></g><g fill="#545454" fill-opacity="1"><g transform="translate(186.630543, 255.876691)"><g><path d="M 2.46875 0 C 2.238281 0 2.070312 -0.0625 1.96875 -0.1875 C 1.875 -0.320312 1.835938 -0.503906 1.859375 -0.734375 L 5.421875 -29.609375 C 5.472656 -30.097656 5.734375 -30.34375 6.203125 -30.34375 L 10.703125 -30.34375 C 11.078125 -30.34375 11.335938 -30.1875 11.484375 -29.875 L 16.34375 -19.734375 C 16.375 -19.640625 16.425781 -19.59375 16.5 -19.59375 C 16.570312 -19.59375 16.632812 -19.640625 16.6875 -19.734375 L 24.109375 -29.875 C 24.335938 -30.1875 24.640625 -30.34375 25.015625 -30.34375 L 29.53125 -30.34375 C 29.988281 -30.34375 30.191406 -30.097656 30.140625 -29.609375 L 26.578125 -0.734375 C 26.523438 -0.242188 26.265625 0 25.796875 0 L 21.296875 0 C 20.796875 0 20.578125 -0.242188 20.640625 -0.734375 L 22.984375 -19.515625 C 22.984375 -19.660156 22.953125 -19.738281 22.890625 -19.75 C 22.835938 -19.757812 22.765625 -19.707031 22.671875 -19.59375 L 17.5625 -12.4375 C 17.332031 -12.125 17.03125 -11.96875 16.65625 -11.96875 L 14.53125 -11.96875 C 14.125 -11.96875 13.863281 -12.125 13.75 -12.4375 L 10.40625 -19.59375 C 10.34375 -19.707031 10.273438 -19.75 10.203125 -19.71875 C 10.140625 -19.695312 10.109375 -19.628906 10.109375 -19.515625 L 7.796875 -0.734375 C 7.710938 -0.242188 7.441406 0 6.984375 0 Z M 2.46875 0 "/></g></g></g><g fill="#545454" fill-opacity="1"><g transform="translate(215.459995, 255.876691)"><g><path d="M 25.328125 -25.84375 C 25.265625 -25.351562 25.003906 -25.109375 24.546875 -25.109375 L 10.96875 -25.109375 C 10.914062 -25.109375 10.859375 -25.082031 10.796875 -25.03125 C 10.734375 -24.988281 10.703125 -24.925781 10.703125 -24.84375 L 9.890625 -18.203125 C 9.890625 -18.035156 9.960938 -17.953125 10.109375 -17.953125 L 18.90625 -17.953125 C 19.394531 -17.953125 19.597656 -17.707031 19.515625 -17.21875 L 19.078125 -13.4375 C 18.992188 -12.945312 18.71875 -12.703125 18.25 -12.703125 L 9.453125 -12.703125 C 9.273438 -12.703125 9.1875 -12.613281 9.1875 -12.4375 L 8.328125 -5.5 C 8.328125 -5.332031 8.398438 -5.25 8.546875 -5.25 L 22.109375 -5.25 C 22.578125 -5.25 22.78125 -5.003906 22.71875 -4.515625 L 22.25 -0.734375 C 22.1875 -0.242188 21.925781 0 21.46875 0 L 2.421875 0 C 1.960938 0 1.765625 -0.242188 1.828125 -0.734375 L 5.375 -29.609375 C 5.4375 -30.097656 5.695312 -30.34375 6.15625 -30.34375 L 25.1875 -30.34375 C 25.65625 -30.34375 25.859375 -30.097656 25.796875 -29.609375 Z M 25.328125 -25.84375 "/></g></g></g><g fill="#545454" fill-opacity="1"><g transform="translate(112.578378, 285.17639)"><g><path d="M 5.53125 0.15625 C 4.207031 0.15625 3.15625 -0.203125 2.375 -0.921875 C 1.601562 -1.640625 1.21875 -2.601562 1.21875 -3.8125 C 1.21875 -4.132812 1.234375 -4.375 1.265625 -4.53125 L 1.859375 -9.46875 C 1.960938 -10.394531 2.257812 -11.210938 2.75 -11.921875 C 3.25 -12.628906 3.890625 -13.175781 4.671875 -13.5625 C 5.453125 -13.945312 6.320312 -14.140625 7.28125 -14.140625 C 8.613281 -14.140625 9.671875 -13.789062 10.453125 -13.09375 C 11.234375 -12.394531 11.625 -11.460938 11.625 -10.296875 C 11.625 -10.148438 11.609375 -9.929688 11.578125 -9.640625 C 11.554688 -9.492188 11.453125 -9.414062 11.265625 -9.40625 L 9.609375 -9.3125 L 9.53125 -9.3125 C 9.382812 -9.3125 9.3125 -9.34375 9.3125 -9.40625 L 9.328125 -9.53125 C 9.335938 -9.625 9.34375 -9.757812 9.34375 -9.9375 C 9.34375 -10.625 9.140625 -11.160156 8.734375 -11.546875 C 8.328125 -11.941406 7.765625 -12.140625 7.046875 -12.140625 C 6.265625 -12.140625 5.601562 -11.898438 5.0625 -11.421875 C 4.53125 -10.941406 4.210938 -10.3125 4.109375 -9.53125 L 3.5 -4.4375 C 3.476562 -4.34375 3.46875 -4.203125 3.46875 -4.015625 C 3.46875 -3.347656 3.675781 -2.816406 4.09375 -2.421875 C 4.507812 -2.035156 5.078125 -1.84375 5.796875 -1.84375 C 6.566406 -1.84375 7.21875 -2.078125 7.75 -2.546875 C 8.28125 -3.015625 8.597656 -3.644531 8.703125 -4.4375 C 8.703125 -4.5 8.734375 -4.550781 8.796875 -4.59375 C 8.859375 -4.644531 8.9375 -4.664062 9.03125 -4.65625 L 10.640625 -4.578125 C 10.859375 -4.546875 10.957031 -4.507812 10.9375 -4.46875 L 10.9375 -4.375 C 10.832031 -3.46875 10.535156 -2.671875 10.046875 -1.984375 C 9.554688 -1.296875 8.921875 -0.765625 8.140625 -0.390625 C 7.359375 -0.0234375 6.488281 0.15625 5.53125 0.15625 Z M 5.53125 0.15625 "/></g></g></g><g fill="#545454" fill-opacity="1"><g transform="translate(124.354314, 285.17639)"><g><path d="M 8.703125 0 C 8.515625 0 8.398438 -0.078125 8.359375 -0.234375 L 6.53125 -5.953125 C 6.519531 -6.003906 6.472656 -6.03125 6.390625 -6.03125 L 4.140625 -6.03125 C 4.066406 -6.03125 4.019531 -5.988281 4 -5.90625 L 3.3125 -0.3125 C 3.300781 -0.226562 3.265625 -0.15625 3.203125 -0.09375 C 3.140625 -0.03125 3.054688 0 2.953125 0 L 1.34375 0 C 1.125 0 1.03125 -0.101562 1.0625 -0.3125 L 2.71875 -13.671875 C 2.738281 -13.890625 2.851562 -14 3.0625 -14 L 8.3125 -14 C 9.394531 -14 10.253906 -13.6875 10.890625 -13.0625 C 11.535156 -12.4375 11.859375 -11.601562 11.859375 -10.5625 C 11.859375 -10.425781 11.847656 -10.210938 11.828125 -9.921875 C 11.703125 -9.003906 11.367188 -8.222656 10.828125 -7.578125 C 10.296875 -6.929688 9.613281 -6.488281 8.78125 -6.25 C 8.738281 -6.238281 8.710938 -6.210938 8.703125 -6.171875 C 8.691406 -6.140625 8.691406 -6.113281 8.703125 -6.09375 L 10.6875 -0.375 C 10.695312 -0.351562 10.703125 -0.316406 10.703125 -0.265625 C 10.703125 -0.0859375 10.601562 0 10.40625 0 Z M 4.875 -12 C 4.78125 -12 4.734375 -11.957031 4.734375 -11.875 L 4.25 -7.953125 C 4.238281 -7.867188 4.273438 -7.828125 4.359375 -7.828125 L 7.234375 -7.828125 C 7.910156 -7.828125 8.46875 -8.050781 8.90625 -8.5 C 9.351562 -8.957031 9.578125 -9.53125 9.578125 -10.21875 C 9.578125 -10.75 9.410156 -11.175781 9.078125 -11.5 C 8.753906 -11.832031 8.3125 -12 7.75 -12 Z M 4.875 -12 "/></g></g></g><g fill="#545454" fill-opacity="1"><g transform="translate(136.230046, 285.17639)"><g><path d="M 5.59375 0.203125 C 4.257812 0.203125 3.195312 -0.171875 2.40625 -0.921875 C 1.625 -1.679688 1.234375 -2.691406 1.234375 -3.953125 C 1.234375 -4.285156 1.25 -4.539062 1.28125 -4.71875 L 1.84375 -9.265625 C 1.957031 -10.222656 2.265625 -11.070312 2.765625 -11.8125 C 3.265625 -12.550781 3.910156 -13.125 4.703125 -13.53125 C 5.492188 -13.9375 6.375 -14.140625 7.34375 -14.140625 C 8.6875 -14.140625 9.753906 -13.757812 10.546875 -13 C 11.335938 -12.25 11.734375 -11.25 11.734375 -10 C 11.734375 -9.6875 11.722656 -9.441406 11.703125 -9.265625 L 11.140625 -4.71875 C 11.023438 -3.738281 10.710938 -2.875 10.203125 -2.125 C 9.691406 -1.382812 9.035156 -0.8125 8.234375 -0.40625 C 7.441406 0 6.5625 0.203125 5.59375 0.203125 Z M 5.828125 -1.796875 C 6.640625 -1.796875 7.320312 -2.050781 7.875 -2.5625 C 8.4375 -3.070312 8.773438 -3.757812 8.890625 -4.625 L 9.4375 -9.28125 C 9.46875 -9.5 9.484375 -9.660156 9.484375 -9.765625 C 9.484375 -10.484375 9.269531 -11.054688 8.84375 -11.484375 C 8.414062 -11.921875 7.835938 -12.140625 7.109375 -12.140625 C 6.296875 -12.140625 5.613281 -11.878906 5.0625 -11.359375 C 4.519531 -10.835938 4.195312 -10.144531 4.09375 -9.28125 L 3.515625 -4.625 C 3.484375 -4.414062 3.46875 -4.257812 3.46875 -4.15625 C 3.46875 -3.4375 3.679688 -2.863281 4.109375 -2.4375 C 4.535156 -2.007812 5.109375 -1.796875 5.828125 -1.796875 Z M 5.828125 -1.796875 "/></g></g></g><g fill="#545454" fill-opacity="1"><g transform="translate(148.245489, 285.17639)"><g><path d="M 1.34375 0 C 1.125 0 1.03125 -0.101562 1.0625 -0.3125 L 2.703125 -13.65625 C 2.734375 -13.875 2.851562 -13.984375 3.0625 -13.984375 L 7.703125 -13.984375 C 8.972656 -13.984375 9.976562 -13.664062 10.71875 -13.03125 C 11.46875 -12.40625 11.84375 -11.554688 11.84375 -10.484375 C 11.84375 -10.347656 11.828125 -10.148438 11.796875 -9.890625 L 11.109375 -4.09375 C 10.941406 -2.84375 10.390625 -1.847656 9.453125 -1.109375 C 8.523438 -0.367188 7.367188 0 5.984375 0 Z M 3.53125 -2.109375 C 3.519531 -2.035156 3.554688 -2 3.640625 -2 L 6.328125 -2 C 7.003906 -2 7.578125 -2.21875 8.046875 -2.65625 C 8.515625 -3.101562 8.796875 -3.703125 8.890625 -4.453125 L 9.53125 -9.5 C 9.539062 -9.59375 9.546875 -9.734375 9.546875 -9.921875 C 9.546875 -10.566406 9.363281 -11.070312 9 -11.4375 C 8.644531 -11.800781 8.15625 -11.984375 7.53125 -11.984375 L 4.859375 -11.984375 C 4.773438 -11.984375 4.734375 -11.941406 4.734375 -11.859375 Z M 3.53125 -2.109375 "/></g></g></g><g fill="#545454" fill-opacity="1"><g transform="translate(160.201047, 285.17639)"><g><path d="M 1.34375 0 C 1.125 0 1.03125 -0.101562 1.0625 -0.3125 L 2.703125 -13.65625 C 2.734375 -13.875 2.851562 -13.984375 3.0625 -13.984375 L 4.671875 -13.984375 C 4.878906 -13.984375 4.972656 -13.875 4.953125 -13.65625 L 3.3125 -0.3125 C 3.300781 -0.226562 3.265625 -0.15625 3.203125 -0.09375 C 3.140625 -0.03125 3.054688 0 2.953125 0 Z M 1.34375 0 "/></g></g></g><g fill="#545454" fill-opacity="1"><g transform="translate(165.27069, 285.17639)"><g><path d="M 5.53125 0.15625 C 4.207031 0.15625 3.15625 -0.203125 2.375 -0.921875 C 1.601562 -1.640625 1.21875 -2.601562 1.21875 -3.8125 C 1.21875 -4.132812 1.234375 -4.375 1.265625 -4.53125 L 1.859375 -9.46875 C 1.960938 -10.394531 2.257812 -11.210938 2.75 -11.921875 C 3.25 -12.628906 3.890625 -13.175781 4.671875 -13.5625 C 5.453125 -13.945312 6.320312 -14.140625 7.28125 -14.140625 C 8.613281 -14.140625 9.671875 -13.789062 10.453125 -13.09375 C 11.234375 -12.394531 11.625 -11.460938 11.625 -10.296875 C 11.625 -10.148438 11.609375 -9.929688 11.578125 -9.640625 C 11.554688 -9.492188 11.453125 -9.414062 11.265625 -9.40625 L 9.609375 -9.3125 L 9.53125 -9.3125 C 9.382812 -9.3125 9.3125 -9.34375 9.3125 -9.40625 L 9.328125 -9.53125 C 9.335938 -9.625 9.34375 -9.757812 9.34375 -9.9375 C 9.34375 -10.625 9.140625 -11.160156 8.734375 -11.546875 C 8.328125 -11.941406 7.765625 -12.140625 7.046875 -12.140625 C 6.265625 -12.140625 5.601562 -11.898438 5.0625 -11.421875 C 4.53125 -10.941406 4.210938 -10.3125 4.109375 -9.53125 L 3.5 -4.4375 C 3.476562 -4.34375 3.46875 -4.203125 3.46875 -4.015625 C 3.46875 -3.347656 3.675781 -2.816406 4.09375 -2.421875 C 4.507812 -2.035156 5.078125 -1.84375 5.796875 -1.84375 C 6.566406 -1.84375 7.21875 -2.078125 7.75 -2.546875 C 8.28125 -3.015625 8.597656 -3.644531 8.703125 -4.4375 C 8.703125 -4.5 8.734375 -4.550781 8.796875 -4.59375 C 8.859375 -4.644531 8.9375 -4.664062 9.03125 -4.65625 L 10.640625 -4.578125 C 10.859375 -4.546875 10.957031 -4.507812 10.9375 -4.46875 L 10.9375 -4.375 C 10.832031 -3.46875 10.535156 -2.671875 10.046875 -1.984375 C 9.554688 -1.296875 8.921875 -0.765625 8.140625 -0.390625 C 7.359375 -0.0234375 6.488281 0.15625 5.53125 0.15625 Z M 5.53125 0.15625 "/></g></g></g><g fill="#545454" fill-opacity="1"><g transform="translate(177.046626, 285.17639)"><g/></g></g><g fill="#545454" fill-opacity="1"><g transform="translate(180.918706, 285.17639)"><g><path d="M 5.53125 0.15625 C 4.207031 0.15625 3.15625 -0.203125 2.375 -0.921875 C 1.601562 -1.640625 1.21875 -2.601562 1.21875 -3.8125 C 1.21875 -4.132812 1.234375 -4.375 1.265625 -4.53125 L 1.859375 -9.46875 C 1.960938 -10.394531 2.257812 -11.210938 2.75 -11.921875 C 3.25 -12.628906 3.890625 -13.175781 4.671875 -13.5625 C 5.453125 -13.945312 6.320312 -14.140625 7.28125 -14.140625 C 8.613281 -14.140625 9.671875 -13.789062 10.453125 -13.09375 C 11.234375 -12.394531 11.625 -11.460938 11.625 -10.296875 C 11.625 -10.148438 11.609375 -9.929688 11.578125 -9.640625 C 11.554688 -9.492188 11.453125 -9.414062 11.265625 -9.40625 L 9.609375 -9.3125 L 9.53125 -9.3125 C 9.382812 -9.3125 9.3125 -9.34375 9.3125 -9.40625 L 9.328125 -9.53125 C 9.335938 -9.625 9.34375 -9.757812 9.34375 -9.9375 C 9.34375 -10.625 9.140625 -11.160156 8.734375 -11.546875 C 8.328125 -11.941406 7.765625 -12.140625 7.046875 -12.140625 C 6.265625 -12.140625 5.601562 -11.898438 5.0625 -11.421875 C 4.53125 -10.941406 4.210938 -10.3125 4.109375 -9.53125 L 3.5 -4.4375 C 3.476562 -4.34375 3.46875 -4.203125 3.46875 -4.015625 C 3.46875 -3.347656 3.675781 -2.816406 4.09375 -2.421875 C 4.507812 -2.035156 5.078125 -1.84375 5.796875 -1.84375 C 6.566406 -1.84375 7.21875 -2.078125 7.75 -2.546875 C 8.28125 -3.015625 8.597656 -3.644531 8.703125 -4.4375 C 8.703125 -4.5 8.734375 -4.550781 8.796875 -4.59375 C 8.859375 -4.644531 8.9375 -4.664062 9.03125 -4.65625 L 10.640625 -4.578125 C 10.859375 -4.546875 10.957031 -4.507812 10.9375 -4.46875 L 10.9375 -4.375 C 10.832031 -3.46875 10.535156 -2.671875 10.046875 -1.984375 C 9.554688 -1.296875 8.921875 -0.765625 8.140625 -0.390625 C 7.359375 -0.0234375 6.488281 0.15625 5.53125 0.15625 Z M 5.53125 0.15625 "/></g></g></g><g fill="#545454" fill-opacity="1"><g transform="translate(192.694642, 285.17639)"><g><path d="M 8.703125 0 C 8.515625 0 8.398438 -0.078125 8.359375 -0.234375 L 6.53125 -5.953125 C 6.519531 -6.003906 6.472656 -6.03125 6.390625 -6.03125 L 4.140625 -6.03125 C 4.066406 -6.03125 4.019531 -5.988281 4 -5.90625 L 3.3125 -0.3125 C 3.300781 -0.226562 3.265625 -0.15625 3.203125 -0.09375 C 3.140625 -0.03125 3.054688 0 2.953125 0 L 1.34375 0 C 1.125 0 1.03125 -0.101562 1.0625 -0.3125 L 2.71875 -13.671875 C 2.738281 -13.890625 2.851562 -14 3.0625 -14 L 8.3125 -14 C 9.394531 -14 10.253906 -13.6875 10.890625 -13.0625 C 11.535156 -12.4375 11.859375 -11.601562 11.859375 -10.5625 C 11.859375 -10.425781 11.847656 -10.210938 11.828125 -9.921875 C 11.703125 -9.003906 11.367188 -8.222656 10.828125 -7.578125 C 10.296875 -6.929688 9.613281 -6.488281 8.78125 -6.25 C 8.738281 -6.238281 8.710938 -6.210938 8.703125 -6.171875 C 8.691406 -6.140625 8.691406 -6.113281 8.703125 -6.09375 L 10.6875 -0.375 C 10.695312 -0.351562 10.703125 -0.316406 10.703125 -0.265625 C 10.703125 -0.0859375 10.601562 0 10.40625 0 Z M 4.875 -12 C 4.78125 -12 4.734375 -11.957031 4.734375 -11.875 L 4.25 -7.953125 C 4.238281 -7.867188 4.273438 -7.828125 4.359375 -7.828125 L 7.234375 -7.828125 C 7.910156 -7.828125 8.46875 -8.050781 8.90625 -8.5 C 9.351562 -8.957031 9.578125 -9.53125 9.578125 -10.21875 C 9.578125 -10.75 9.410156 -11.175781 9.078125 -11.5 C 8.753906 -11.832031 8.3125 -12 7.75 -12 Z M 4.875 -12 "/></g></g></g><g fill="#545454" fill-opacity="1"><g transform="translate(204.570374, 285.17639)"><g><path d="M 4.59375 -0.015625 C 4.375 -0.015625 4.28125 -0.125 4.3125 -0.34375 L 4.96875 -5.59375 L 4.953125 -5.734375 L 2 -13.59375 C 1.988281 -13.632812 1.984375 -13.679688 1.984375 -13.734375 C 1.984375 -13.898438 2.070312 -13.984375 2.25 -13.984375 L 4.015625 -13.984375 C 4.171875 -13.984375 4.285156 -13.898438 4.359375 -13.734375 L 6.328125 -8.25 C 6.359375 -8.207031 6.390625 -8.1875 6.421875 -8.1875 C 6.453125 -8.1875 6.472656 -8.207031 6.484375 -8.25 L 9.84375 -13.734375 C 9.945312 -13.898438 10.082031 -13.984375 10.25 -13.984375 L 12.015625 -13.984375 C 12.179688 -13.984375 12.265625 -13.921875 12.265625 -13.796875 C 12.265625 -13.773438 12.238281 -13.707031 12.1875 -13.59375 L 7.265625 -5.734375 L 7.203125 -5.59375 L 6.5625 -0.34375 C 6.550781 -0.25 6.515625 -0.171875 6.453125 -0.109375 C 6.398438 -0.046875 6.316406 -0.015625 6.203125 -0.015625 Z M 4.59375 -0.015625 "/></g></g></g><g fill="#545454" fill-opacity="1"><g transform="translate(216.166673, 285.17639)"><g><path d="M 5.375 0.15625 C 3.988281 0.15625 2.898438 -0.15625 2.109375 -0.78125 C 1.316406 -1.40625 0.921875 -2.25 0.921875 -3.3125 C 0.921875 -3.4375 0.929688 -3.617188 0.953125 -3.859375 L 1.015625 -4.265625 C 1.046875 -4.484375 1.160156 -4.59375 1.359375 -4.59375 L 2.953125 -4.59375 C 3.148438 -4.59375 3.238281 -4.492188 3.21875 -4.296875 L 3.171875 -3.96875 L 3.15625 -3.75 C 3.15625 -3.195312 3.390625 -2.738281 3.859375 -2.375 C 4.335938 -2.019531 4.984375 -1.84375 5.796875 -1.84375 C 6.628906 -1.84375 7.269531 -2.039062 7.71875 -2.4375 C 8.175781 -2.832031 8.40625 -3.332031 8.40625 -3.9375 C 8.40625 -4.382812 8.195312 -4.753906 7.78125 -5.046875 C 7.375 -5.335938 6.644531 -5.707031 5.59375 -6.15625 C 4.789062 -6.46875 4.132812 -6.765625 3.625 -7.046875 C 3.125 -7.328125 2.703125 -7.691406 2.359375 -8.140625 C 2.023438 -8.597656 1.859375 -9.160156 1.859375 -9.828125 C 1.859375 -10.703125 2.070312 -11.460938 2.5 -12.109375 C 2.9375 -12.765625 3.535156 -13.265625 4.296875 -13.609375 C 5.066406 -13.960938 5.9375 -14.140625 6.90625 -14.140625 C 8.269531 -14.140625 9.351562 -13.8125 10.15625 -13.15625 C 10.957031 -12.507812 11.359375 -11.640625 11.359375 -10.546875 C 11.359375 -10.441406 11.347656 -10.269531 11.328125 -10.03125 L 11.28125 -9.765625 C 11.257812 -9.546875 11.144531 -9.4375 10.9375 -9.4375 L 9.34375 -9.4375 C 9.25 -9.4375 9.175781 -9.457031 9.125 -9.5 C 9.070312 -9.550781 9.050781 -9.613281 9.0625 -9.6875 L 9.109375 -9.90625 L 9.125 -10.140625 C 9.125 -10.710938 8.898438 -11.1875 8.453125 -11.5625 C 8.003906 -11.945312 7.375 -12.140625 6.5625 -12.140625 C 5.789062 -12.140625 5.179688 -11.96875 4.734375 -11.625 C 4.296875 -11.28125 4.078125 -10.785156 4.078125 -10.140625 C 4.078125 -9.804688 4.175781 -9.523438 4.375 -9.296875 C 4.570312 -9.066406 4.859375 -8.859375 5.234375 -8.671875 C 5.609375 -8.484375 6.179688 -8.234375 6.953125 -7.921875 C 7.765625 -7.585938 8.414062 -7.285156 8.90625 -7.015625 C 9.394531 -6.753906 9.8125 -6.394531 10.15625 -5.9375 C 10.507812 -5.488281 10.6875 -4.925781 10.6875 -4.25 C 10.6875 -4.15625 10.671875 -3.988281 10.640625 -3.75 C 10.546875 -2.976562 10.269531 -2.296875 9.8125 -1.703125 C 9.351562 -1.109375 8.738281 -0.648438 7.96875 -0.328125 C 7.207031 -0.00390625 6.34375 0.15625 5.375 0.15625 Z M 5.375 0.15625 "/></g></g></g><g fill="#545454" fill-opacity="1"><g transform="translate(227.583334, 285.17639)"><g><path d="M 11.578125 -13.984375 C 11.671875 -13.984375 11.738281 -13.953125 11.78125 -13.890625 C 11.832031 -13.828125 11.851562 -13.75 11.84375 -13.65625 L 11.6875 -12.28125 C 11.664062 -12.1875 11.625 -12.109375 11.5625 -12.046875 C 11.507812 -11.992188 11.429688 -11.96875 11.328125 -11.96875 L 7.875 -11.96875 C 7.800781 -11.96875 7.753906 -11.925781 7.734375 -11.84375 L 6.3125 -0.3125 C 6.300781 -0.226562 6.265625 -0.15625 6.203125 -0.09375 C 6.140625 -0.03125 6.0625 0 5.96875 0 L 4.328125 0 C 4.234375 0 4.160156 -0.03125 4.109375 -0.09375 C 4.066406 -0.15625 4.054688 -0.226562 4.078125 -0.3125 L 5.484375 -11.84375 C 5.484375 -11.925781 5.445312 -11.96875 5.375 -11.96875 L 2.0625 -11.96875 C 1.84375 -11.96875 1.75 -12.070312 1.78125 -12.28125 L 1.953125 -13.65625 C 1.984375 -13.875 2.097656 -13.984375 2.296875 -13.984375 Z M 11.578125 -13.984375 "/></g></g></g><g fill="#545454" fill-opacity="1"><g transform="translate(238.800401, 285.17639)"><g><path d="M 9.5 0 C 9.332031 0 9.226562 -0.0859375 9.1875 -0.265625 L 8.84375 -2.3125 C 8.84375 -2.382812 8.800781 -2.421875 8.71875 -2.421875 L 3.65625 -2.421875 C 3.582031 -2.421875 3.53125 -2.382812 3.5 -2.3125 L 2.65625 -0.265625 C 2.570312 -0.0859375 2.4375 0 2.25 0 L 0.5 0 C 0.394531 0 0.320312 -0.03125 0.28125 -0.09375 C 0.25 -0.164062 0.253906 -0.253906 0.296875 -0.359375 L 6.09375 -13.71875 C 6.164062 -13.894531 6.289062 -13.984375 6.46875 -13.984375 L 8.71875 -13.984375 C 8.894531 -13.984375 9.003906 -13.894531 9.046875 -13.71875 L 11.5625 -0.359375 L 11.5625 -0.28125 C 11.5625 -0.09375 11.46875 0 11.28125 0 Z M 4.359375 -4.375 C 4.316406 -4.28125 4.34375 -4.234375 4.4375 -4.234375 L 8.390625 -4.234375 C 8.460938 -4.234375 8.5 -4.28125 8.5 -4.375 L 7.328125 -11.15625 C 7.316406 -11.21875 7.296875 -11.25 7.265625 -11.25 C 7.242188 -11.25 7.21875 -11.21875 7.1875 -11.15625 Z M 4.359375 -4.375 "/></g></g></g><g fill="#545454" fill-opacity="1"><g transform="translate(251.354741, 285.17639)"><g><path d="M 1.34375 0 C 1.125 0 1.03125 -0.101562 1.0625 -0.3125 L 2.703125 -13.65625 C 2.734375 -13.875 2.851562 -13.984375 3.0625 -13.984375 L 4.671875 -13.984375 C 4.878906 -13.984375 4.972656 -13.875 4.953125 -13.65625 L 3.53125 -2.109375 C 3.53125 -2.035156 3.566406 -2 3.640625 -2 L 10.03125 -2 C 10.238281 -2 10.328125 -1.890625 10.296875 -1.671875 L 10.125 -0.3125 C 10.09375 -0.101562 9.976562 0 9.78125 0 Z M 1.34375 0 "/></g></g></g></svg>